<?xml version="1.0" encoding="utf-8"?>
<!-- Generator: Adobe Illustrator 18.1.1, SVG Export Plug-In . SVG Version: 6.00 Build 0)  -->
<svg version="1.1" id="Layer_1" xmlns="http://www.w3.org/2000/svg" xmlns:xlink="http://www.w3.org/1999/xlink" x="0px" y="0px"
	 viewBox="0 0 6.6 14.1" enable-background="new 0 0 6.6 14.1" xml:space="preserve">
<path id="Facebook" fill="#FFFFFF" d="M1.4,2.7c0,0.4,0,1.9,0,1.9H0V7h1.4v7h2.9V7h2c0,0,0.2-1.1,0.3-2.4c-0.3,0-2.2,0-2.2,0
	s0-1.4,0-1.6c0-0.2,0.3-0.6,0.6-0.6c0.3,0,1,0,1.6,0c0-0.3,0-1.4,0-2.5C5.7,0,4.8,0,4.4,0C1.3,0,1.4,2.4,1.4,2.7z"/>
</svg>
