<?xml version="1.0" encoding="utf-8"?>
<!-- Generator: Adobe Illustrator 18.1.1, SVG Export Plug-In . SVG Version: 6.00 Build 0)  -->
<svg version="1.1" id="Layer_1" xmlns="http://www.w3.org/2000/svg" xmlns:xlink="http://www.w3.org/1999/xlink" x="0px" y="0px"
	 viewBox="0 0 15.2 15.2" enable-background="new 0 0 15.2 15.2" xml:space="preserve">
<circle fill="#FFFFFF" cx="7.6" cy="7.6" r="7.6"/>
<g>
	<path fill="#06B07D" d="M8.9,9.8c0,0,0,0.1,0,0.1c-0.1,0.1-0.8,1.3-2.4,1.3c-0.4,0-0.5-0.2-0.5-0.4c0-0.2,0.2-0.8,0.7-2.3l0.3-1
		c0.1-0.3,0.2-0.5,0.2-0.7c0-0.1,0-0.2-0.2-0.2C7,6.8,6.4,7.4,6.3,7.6c0,0-0.1,0-0.1,0L6,7.5c0,0-0.1-0.1,0-0.1
		c0.1-0.1,1-1.5,2.3-1.5c0.4,0,0.5,0.2,0.5,0.4c0,0.3-0.1,0.6-0.4,1.3L7.8,9.5c-0.2,0.4-0.2,0.6-0.2,0.7c0,0.1,0,0.2,0.2,0.2
		c0.2,0,0.8-0.6,0.9-0.8c0,0,0.1,0,0.1,0L8.9,9.8z M9.3,3.9c0,0.4-0.4,0.8-0.8,0.8C8,4.7,7.7,4.4,7.7,3.9c0-0.4,0.3-0.7,0.8-0.7
		C9,3.2,9.3,3.5,9.3,3.9z"/>
</g>
</svg>
