<?xml version="1.0" encoding="utf-8"?>
<!-- Generator: Adobe Illustrator 18.1.1, SVG Export Plug-In . SVG Version: 6.00 Build 0)  -->
<svg version="1.1" id="Layer_1" xmlns="http://www.w3.org/2000/svg" xmlns:xlink="http://www.w3.org/1999/xlink" x="0px" y="0px"
	 viewBox="0 0 13.1 11.4" enable-background="new 0 0 13.1 11.4" xml:space="preserve">
<path fill="#FFFFFF" d="M13.1,1.4c-0.5,0.2-1,0.4-1.5,0.5c0.6-0.4,1-0.9,1.2-1.6c-0.5,0.3-1.1,0.6-1.7,0.7C10.6,0.4,9.9,0,9.1,0
	C7.6,0,6.4,1.3,6.4,2.9c0,0.2,0,0.4,0.1,0.7c-2.2-0.1-4.2-1.3-5.6-3C0.7,1,0.5,1.4,0.5,2c0,1,0.5,1.9,1.2,2.4C1.3,4.4,0.9,4.2,0.5,4
	v0c0,1.4,0.9,2.6,2.2,2.8C2.5,6.9,2.2,7,2,7C1.8,7,1.6,7,1.5,6.9c0.3,1.1,1.3,2,2.5,2c-0.9,0.8-2.1,1.2-3.3,1.2c-0.2,0-0.4,0-0.6,0
	c1.2,0.8,2.6,1.3,4.1,1.3c5,0,7.7-4.4,7.7-8.2c0-0.1,0-0.2,0-0.4C12.3,2.4,12.8,1.9,13.1,1.4"/>
</svg>
