<?xml version="1.0" encoding="utf-8"?>
<!-- Generator: Adobe Illustrator 18.1.1, SVG Export Plug-In . SVG Version: 6.00 Build 0)  -->
<svg version="1.1" id="Layer_1" xmlns="http://www.w3.org/2000/svg" xmlns:xlink="http://www.w3.org/1999/xlink" x="0px" y="0px"
	 viewBox="0 0 10 13.4" enable-background="new 0 0 10 13.4" xml:space="preserve">
<g>
	<path fill="#231F20" d="M9.4,3.7C9,3.4,8.4,3.6,8.1,4.1L5,10.4L1.8,4.1C1.6,3.6,1,3.4,0.5,3.7C0.1,3.9-0.1,4.5,0.1,4.9l4,7.9
		c0.2,0.4,0.6,0.6,0.9,0.5c0.4,0,0.8-0.2,0.9-0.5l4-7.9C10.1,4.5,9.9,3.9,9.4,3.7z"/>
	<path fill="#231F20" d="M7.3,0L2.6,0c-0.5,0-1,0.4-1,0.9c0,0.5,0.4,0.9,1,0.9l4.7,0c0.5,0,1-0.4,1-0.9C8.3,0.4,7.9,0,7.3,0z"/>
</g>
</svg>
